<svg fill="none" height="168" viewBox="0 0 173 168" width="173" xmlns="http://www.w3.org/2000/svg"><g fill="#fff"><circle cx="84" cy="15" r="15"/><path clip-rule="evenodd" d="m84.6051 97.5238-5.3682 31.7252c-1.6125 12.023-6.7282 21.541-15.3469 28.555-8.6188 7.013-19.2949 10.408-32.0284 10.186-6.2278-.112-12.1775-1.475-17.8492-4.091-5.67167-2.561-10.34248-6.095-14.0124-10.604l11.677-14.361c5.2269 6.624 11.7882 10.047 19.6841 10.27 6.1166.223 11.3434-1.392 15.6806-4.843 4.3372-3.395 7.2842-8.21 8.8412-14.444l1.3345-5.427 8.7153-55.637 3.3787-18.1698 1.4343-8.6832h23.2543l-4.7854 28.2814c2.3229-6.2359 5.4794-11.7008 9.4695-16.3945 7.4509-8.7554 16.8209-13.0495 28.1079-12.8822 9.62.2231 16.793 2.7085 21.519 9.4563l1.726-8.6996h22.963l-14.763 87.4146c-1.613 12.046-6.728 21.582-15.347 28.608-8.619 7.027-19.295 10.429-32.028 10.206-6.228-.112-12.1779-1.478-17.8496-4.099-5.6717-2.565-10.3425-6.107-14.0124-10.624l11.677-14.388c5.2269 6.637 11.788 10.066 19.684 10.289 6.117.223 11.344-1.394 15.681-4.851 4.337-3.402 7.284-8.226 8.841-14.472l1.334-5.437c-6.561 6.58-13.929 10.759-22.103 10.536-8.785-.112-15.7635-3.374-20.9348-9.787-5.1712-6.469-8.0071-14.862-8.5075-25.1788-.0385-.7855-.0607-1.6036-.0666-2.4544zm26.8399 12.9102c-2.168-3.178-3.252-7.389-3.252-12.6307-.056-2.5095.111-5.7998.5-9.8708 1.056-8.3092 3.67-14.9734 7.84-19.9924 4.171-5.019 9.258-8.4449 15.264-8.2776 6.45.2231 10.871 2.9557 13.262 8.1978l-5.992 38.3187c-4.948 5.688-11.635 9.414-18.03 9.191-4.17-.167-7.367-1.813-9.592-4.936z" fill-rule="evenodd"/></g></svg>