<svg fill="none" height="41" viewBox="0 0 42 41" width="42" xmlns="http://www.w3.org/2000/svg" xmlns:xlink="http://www.w3.org/1999/xlink"><mask id="a" fill="#000" height="32" maskUnits="userSpaceOnUse" width="42" x="0" y="8.87256"><path d="m0 8.87256h42v32h-42z" fill="#fff"/><path d="m17.3574 10.1107-.3316 2.0674-.7812 4.3261-2.0151 13.247-.3086 1.2921c-.36 1.4843-1.0414 2.6307-2.0442 3.4391-1.0028.8217-2.21134 1.206-3.62557 1.153-1.82564-.053-3.34272-.868-4.55124-2.4451l-2.69989 3.4192c.84854 1.0735 1.92849 1.915 3.23987 2.5246 1.31137.6229 2.68703.9476 4.12697.9741 2.94416.053 5.41266-.7554 7.40536-2.4252 1.9928-1.6699 3.1756-3.9361 3.5485-6.7987l3.4134-20.7736z" fill="#000"/><path d="m20.6737 21.047c.3857-3.3328 1.4335-6.0348 3.1434-8.1061 1.7228-2.0847 3.8892-3.10705 6.4991-3.06722 2.2241.05311 3.8826.64492 4.9755 2.25152l.3989-2.0714h5.3094l-3.4134 20.813c-.3729 2.868-1.5557 5.1386-3.5485 6.8116-1.9927 1.673-4.4612 2.4829-7.4054 2.4298-1.4399-.0266-2.8156-.3519-4.1269-.9759-1.3114-.6108-2.3914-1.4539-3.2399-2.5294l2.6999-3.4257c1.2085 1.58 2.7256 2.3966 4.5512 2.4497 1.4143.0531 2.6228-.3319 3.6256-1.1551 1.0028-.81 1.6842-1.9585 2.0442-3.4456l.3085-1.2946c-1.517 1.5668-3.2205 2.5617-5.1105 2.5086-2.0313-.0266-3.6448-.8033-4.8405-2.3303-1.1956-1.5402-1.8513-3.5385-1.967-5.9949-.0386-.81-.0065-1.766.0964-2.868zm5.3419 2.3501c0 1.2482.2507 2.2506.7521 3.0075.5143.7435 1.2535 1.1352 2.2178 1.1751 1.4785.0531 3.0246-.8339 4.1688-2.1883l1.3853-9.1235c-.5529-1.2482-1.575-1.8988-3.0664-1.9519-1.3885-.0398-2.5648.7759-3.5291 1.9709-.9642 1.195-1.5685 2.7817-1.8128 4.7601-.09.9693-.1285 1.7526-.1157 2.3501z" fill="#000"/></mask><g fill="#000"><path d="m17.3574 10.1107-.3316 2.0674-.7812 4.3261-2.0151 13.247-.3086 1.2921c-.36 1.4843-1.0414 2.6307-2.0442 3.4391-1.0028.8217-2.21134 1.206-3.62557 1.153-1.82564-.053-3.34272-.868-4.55124-2.4451l-2.69989 3.4192c.84854 1.0735 1.92849 1.915 3.23987 2.5246 1.31137.6229 2.68703.9476 4.12697.9741 2.94416.053 5.41266-.7554 7.40536-2.4252 1.9928-1.6699 3.1756-3.9361 3.5485-6.7987l3.4134-20.7736z"/><path d="m20.6737 21.047c.3857-3.3328 1.4335-6.0348 3.1434-8.1061 1.7228-2.0847 3.8892-3.10705 6.4991-3.06722 2.2241.05311 3.8826.64492 4.9755 2.25152l.3989-2.0714h5.3094l-3.4134 20.813c-.3729 2.868-1.5557 5.1386-3.5485 6.8116-1.9927 1.673-4.4612 2.4829-7.4054 2.4298-1.4399-.0266-2.8156-.3519-4.1269-.9759-1.3114-.6108-2.3914-1.4539-3.2399-2.5294l2.6999-3.4257c1.2085 1.58 2.7256 2.3966 4.5512 2.4497 1.4143.0531 2.6228-.3319 3.6256-1.1551 1.0028-.81 1.6842-1.9585 2.0442-3.4456l.3085-1.2946c-1.517 1.5668-3.2205 2.5617-5.1105 2.5086-2.0313-.0266-3.6448-.8033-4.8405-2.3303-1.1956-1.5402-1.8513-3.5385-1.967-5.9949-.0386-.81-.0065-1.766.0964-2.868zm5.3419 2.3501c0 1.2482.2507 2.2506.7521 3.0075.5143.7435 1.2535 1.1352 2.2178 1.1751 1.4785.0531 3.0246-.8339 4.1688-2.1883l1.3853-9.1235c-.5529-1.2482-1.575-1.8988-3.0664-1.9519-1.3885-.0398-2.5648.7759-3.5291 1.9709-.9642 1.195-1.5685 2.7817-1.8128 4.7601-.09.9693-.1285 1.7526-.1157 2.3501z"/><path d="m34.5396 16.2679-.2461-.0447-.0011.0071zm-18.0479.2739.0291-.1913-.4943-.0752-.0291.1913zm16.2508 13.2273 2.0442-13.4637-.4943-.0751-2.0442 13.4637zm2.3032-17.6886-.7521 4.1427.4919.0893.7521-4.1427zm-18.0199.0976.4921.0889.0016-.0097zm.3316-2.0674v-.50005h-.4262l-.0675.42085zm5.3767 0 .4934.081.0955-.58104h-.5889zm-3.4134 20.7736-.4934-.0811-.0014.0083-.001.0082zm-3.5485 6.7987.3212.3832zm-7.40536 2.4252-.0092.4999h.0002zm-4.12697-.9741.21453-.4516-.00376-.0018zm-3.23987-2.5246-.392412-.3099-.244802.3101.244961.3098zm2.69989-3.4192.39687-.3041-.39096-.5102-.39832.5044zm4.55124 2.4451.01873-.4997-.00422-.0001zm3.62557-1.153-.3138-.3892-.0031.0025zm2.0442-3.4391.4859.1179.0004-.0017zm.3086-1.2921.4863.1161.0048-.0203.0032-.0206zm2.0151-13.247-.4923-.0889-.0021.0137zm4.4291 4.5428-.4968-.0575-.001.011zm3.1434-8.1061-.3854-.3186-.0002.0002zm6.4991-3.06722.0119-.49988-.0043-.00006zm4.9755 2.25152-.4135.2812.6769.995.2275-1.1817zm.3989-2.0714v-.49996h-.4129l-.0781.40544zm5.3094 0 .4934.081.0953-.58096h-.5887zm-3.4134 20.813-.4934-.0809-.0014.0082-.0011.0083zm-10.9539 9.2414-.0092.4999h.0002zm-4.1269-.9759.2148-.4515-.0037-.0018zm-3.2399-2.5294-.3927-.3095-.2441.3096.2443.3096zm2.6999-3.4257.3971-.3038-.3912-.5115-.3986.5058zm4.5512 2.4497.0188-.4996-.0042-.0002zm3.6256-1.1551-.3142-.389-.0031.0025zm2.0442-3.4456.486.1176.0004-.0017zm.3085-1.2946.4864.1159.4228-1.7736-1.2684 1.3099zm-5.1105 2.5086.0141-.4999-.0075-.0001zm-4.8405-2.3303-.3949.3066.0013.0017zm-1.967-5.9949.4994-.0235v-.0003zm5.4383-.5179h.5001l-.0002-.0107zm.7521 3.0075-.4169.2762.0057.0082zm2.2178 1.1751-.0206.4995.0026.0001zm4.1688-2.1883.382.3227.0911-.1079.0213-.1397zm1.3853-9.1235.4943.075.0219-.1442-.0591-.1333zm-3.0664-1.9519.0178-.4997-.0034-.0001zm-5.3419 6.731-.4962-.0613-.0009.0075-.0007.0075zm-8.6118-8.7897.3316-2.0675-.9874-.1583-.3316 2.0674zm-.1621-1.6466h5.3767v-1.00004l-5.3767-.00001zm4.8833-.5811-3.4134 20.7736.9868.1622 3.4134-20.7737zm-3.4158 20.7901c-.3586 2.7531-1.488 4.8999-3.3738 6.48l.6423.7665c2.0998-1.7595 3.336-4.1452 3.7231-7.1173zm-3.3738 6.48c-1.8881 1.5822-4.2346 2.3597-7.07526 2.3086l-.018.9998c3.04766.0549 5.63806-.7843 7.73556-2.5419zm-7.07506 2.3086c-1.36826-.0252-2.67397-.3332-3.92165-.9258l-.42905.9033c1.37507.6531 2.82067.9945 4.3323 1.0223zm-3.9254-.9276c-1.24465-.5786-2.26106-1.3726-3.05839-2.3813l-.784503.6201c.899753 1.1383 2.043243 2.0274 3.421343 2.668zm-3.05823-1.7614 2.69989-3.4192-.78482-.6197-2.699892 3.4192zm1.91061-3.4249c1.29086 1.6845 2.9431 2.583 4.9336 2.6408l.02902-.9996c-1.66078-.0482-3.0427-.7798-4.16888-2.2494zm4.92938 2.6407c1.52406.0571 2.8551-.3596 3.9612-1.2659l-.6338-.7735c-.8995.737-1.98554 1.089-3.28994 1.0401zm3.9581-1.2634c1.1036-.8897 1.8354-2.1398 2.2163-3.7105l-.9718-.2357c-.3391 1.3979-.9701 2.4405-1.8721 3.1677zm2.2167-3.7122.3086-1.2922-.9727-.2322-.3085 1.2921zm.3166-1.3331 2.0151-13.247-.9887-.1504-2.0151 13.247zm1.8099-17.7372-.7812 4.3262.9841.1777.7812-4.3262zm4.6367 9.0153c.3773-3.2608 1.3975-5.865 3.0323-7.8453l-.7712-.6367c-1.785 2.1624-2.8605 4.9623-3.2545 8.367zm3.0322-7.8451c1.6301-1.9725 3.654-2.9232 6.1059-2.8858l.0153-.99986c-2.7679-.04225-5.0767 1.05186-6.8921 3.24856zm6.1016-2.8859c2.1395.0511 3.6078.6124 4.574 2.0329l.8269-.5624c-1.2194-1.7928-3.0681-2.41504-5.377-2.47018zm5.4784 1.8462.3989-2.0713-.9819-.18912-.3989 2.07132zm-.092-1.6659h5.3094v-.99996h-5.3094zm4.816-.58089-3.4134 20.81299.9868.1619 3.4134-20.813zm-3.4159 20.82949c-.3586 2.7587-1.4882 4.9098-3.374 6.493l.6429.7659c2.0998-1.7628 3.3357-4.1527 3.7228-7.13zm-3.374 6.493c-1.8882 1.5852-4.2345 2.3641-7.0749 2.3129l-.0181.9998c3.0479.055 5.6385-.7859 7.7359-2.5468zm-7.0747 2.3129c-1.3682-.0252-2.6738-.3338-3.9214-.9275l-.4297.903c1.3751.6544 2.8208.9964 4.3326 1.0243zm-3.9251-.9293c-1.2446-.5796-2.2611-1.3752-3.0585-2.3858l-.785.6194c.8996 1.1403 2.0431 2.031 3.4213 2.6729zm-3.0583-1.7667 2.6999-3.4256-.7854-.619-2.6999 3.4257zm1.91-3.4314c1.2907 1.6876 2.943 2.5879 4.9339 2.6458l.0291-.9996c-1.6604-.0483-3.0423-.7811-4.1687-2.2537zm4.9297 2.6457c1.5243.0572 2.8554-.3604 3.9615-1.2684l-.6345-.7729c-.8995.7384-1.9854 1.091-3.2895 1.042zm3.9585-1.2659c1.1035-.8913 1.8351-2.1436 2.216-3.7169l-.972-.2353c-.3391 1.4009-.9703 2.4457-1.8724 3.1743zm2.2164-3.7186.3085-1.2946-.9727-.2318-.3086 1.2945zm-.5371-1.7583c-1.4686 1.5167-3.0452 2.4041-4.7372 2.3566l-.0281.9996c2.0879.0587 3.9182-1.0438 5.4838-2.6606zm-4.7447 2.3564c-1.8883-.0247-3.3561-.7372-4.4534-2.1385l-.7873.6165c1.294 1.6526 3.0532 2.4935 5.2276 2.5219zm-4.4521-2.1369c-1.1178-1.4398-1.7504-3.3313-1.8626-5.7118l-.9989.047c.1193 2.5323.798 4.6374 2.0716 6.278zm-1.8626-5.7121c-.0371-.7798-.0066-1.7113.0948-2.7978l-.9956-.0929c-.1043 1.1176-.1381 2.0982-.0981 2.9383zm4.4389-.4941c0 1.3107.2628 2.4195.8353 3.2836l.8337-.5523c-.4304-.6495-.669-1.5457-.669-2.7313zm.8409 3.2919c.6103.8824 1.4997 1.3444 2.6084 1.3902l.0412-.9991c-.8198-.0339-1.4089-.3552-1.8271-.9599zm2.611 1.3903c1.6844.0605 3.3652-.9406 4.5688-2.3652l-.7639-.6454c-1.0849 1.2841-2.4963 2.057-3.769 2.0113zm4.6812-2.6128 1.3852-9.1236-.9887-.1501-1.3852 9.1236zm1.348-9.4011c-.3111-.7024-.7654-1.2586-1.3699-1.6434-.6017-.383-1.3216-.5767-2.1358-.6057l-.0355.9994c.6771.0241 1.214.1824 1.6344.4499.4176.2659.7508.659.9925 1.2048zm-3.5091-2.2492c-1.6132-.0463-2.9234.9059-3.9326 2.1567l.7782.628c.9193-1.1393 1.9619-1.8185 3.1257-1.7851zm-3.9326 2.1567c-1.0379 1.2863-1.6675 2.9689-1.9199 5.0128l.9925.1225c.2361-1.9129.815-3.4036 1.7056-4.5073zm-1.9215 5.0278c-.0908.9781-.1312 1.7827-.1178 2.4072l.9998-.0215c-.0123-.5705.0245-1.3327.1137-2.2932z" mask="url(#a)"/></g><ellipse cx="20.422" cy="3.68209" fill="#fd000a" rx="3.46821" ry="3.57143"/></svg>
