<svg fill="none" height="169" viewBox="0 0 177 169" width="177" xmlns="http://www.w3.org/2000/svg" xmlns:xlink="http://www.w3.org/1999/xlink"><mask id="a" fill="#000" height="130" maskUnits="userSpaceOnUse" width="177" x="0" y="40"><path d="m0 40h177v130h-177z" fill="#fff"/><path clip-rule="evenodd" d="m86.6051 97.5238-5.3682 31.7252c-1.6125 12.023-6.7282 21.541-15.3469 28.555-8.6188 7.013-19.2949 10.408-32.0284 10.186-6.2278-.112-12.1775-1.475-17.8492-4.091-5.6717-2.561-10.34248-6.095-14.0124-10.604l11.677-14.361c5.2269 6.624 11.7882 10.047 19.6841 10.27 6.1166.223 11.3434-1.392 15.6806-4.843 4.3372-3.395 7.2842-8.21 8.8412-14.444l1.3345-5.427 8.7153-55.637 3.3787-18.1698 1.4343-8.6832h23.2543l-4.7854 28.2814c2.3229-6.2359 5.4794-11.7008 9.4694-16.3945 7.451-8.7554 16.821-13.0495 28.108-12.8822 9.62.2231 16.793 2.7085 21.519 9.4563l1.726-8.6996h22.963l-14.763 87.4146c-1.613 12.046-6.728 21.582-15.347 28.608-8.619 7.027-19.295 10.429-32.028 10.206-6.228-.112-12.178-1.478-17.8496-4.099-5.6717-2.565-10.3425-6.107-14.0124-10.624l11.677-14.388c5.2269 6.637 11.788 10.066 19.684 10.289 6.117.223 11.344-1.394 15.681-4.851 4.337-3.402 7.284-8.226 8.841-14.472l1.334-5.437c-6.561 6.58-13.929 10.759-22.103 10.536-8.785-.112-15.764-3.374-20.9348-9.787-5.1712-6.469-8.0071-14.862-8.5075-25.1788-.0385-.7855-.0607-1.6036-.0666-2.4544zm26.8399 12.9102c-2.168-3.178-3.252-7.389-3.252-12.6307-.056-2.5095.111-5.7998.5-9.8708 1.056-8.3092 3.67-14.9734 7.84-19.9924 4.171-5.019 9.258-8.4449 15.264-8.2776 6.45.2231 10.871 2.9557 13.262 8.1978l-5.992 38.3187c-4.948 5.688-11.635 9.414-18.03 9.191-4.17-.167-7.367-1.813-9.592-4.936z" fill="#000" fill-rule="evenodd"/></mask><circle cx="86" cy="15" fill="#000" r="15"/><path clip-rule="evenodd" d="m86.6051 97.5238-5.3682 31.7252c-1.6125 12.023-6.7282 21.541-15.3469 28.555-8.6188 7.013-19.2949 10.408-32.0284 10.186-6.2278-.112-12.1775-1.475-17.8492-4.091-5.6717-2.561-10.34248-6.095-14.0124-10.604l11.677-14.361c5.2269 6.624 11.7882 10.047 19.6841 10.27 6.1166.223 11.3434-1.392 15.6806-4.843 4.3372-3.395 7.2842-8.21 8.8412-14.444l1.3345-5.427 8.7153-55.637 3.3787-18.1698 1.4343-8.6832h23.2543l-4.7854 28.2814c2.3229-6.2359 5.4794-11.7008 9.4694-16.3945 7.451-8.7554 16.821-13.0495 28.108-12.8822 9.62.2231 16.793 2.7085 21.519 9.4563l1.726-8.6996h22.963l-14.763 87.4146c-1.613 12.046-6.728 21.582-15.347 28.608-8.619 7.027-19.295 10.429-32.028 10.206-6.228-.112-12.178-1.478-17.8496-4.099-5.6717-2.565-10.3425-6.107-14.0124-10.624l11.677-14.388c5.2269 6.637 11.788 10.066 19.684 10.289 6.117.223 11.344-1.394 15.681-4.851 4.337-3.402 7.284-8.226 8.841-14.472l1.334-5.437c-6.561 6.58-13.929 10.759-22.103 10.536-8.785-.112-15.764-3.374-20.9348-9.787-5.1712-6.469-8.0071-14.862-8.5075-25.1788-.0385-.7855-.0607-1.6036-.0666-2.4544zm26.8399 12.9102c-2.168-3.178-3.252-7.389-3.252-12.6307-.056-2.5095.111-5.7998.5-9.8708 1.056-8.3092 3.67-14.9734 7.84-19.9924 4.171-5.019 9.258-8.4449 15.264-8.2776 6.45.2231 10.871 2.9557 13.262 8.1978l-5.992 38.3187c-4.948 5.688-11.635 9.414-18.03 9.191-4.17-.167-7.367-1.813-9.592-4.936z" fill="#fff" fill-rule="evenodd"/><path d="m68.4267 68.9304.1258-.8035-.9879-.1547-.1259.8034zm12.8102 60.3186-.986-.166-.0028.016-.0023.017zm5.3682-31.7252.9999-.007-1.9859-.1599zm-20.7151 60.2802.6311.775zm-32.0284 10.186-.0179 1h.0004zm-17.8492-4.091.4189-.908-.0074-.004zm-14.0124-10.604-.77588-.631-.513257.631.513587.631zm11.677-14.361.785-.619-.7733-.98-.7876.969zm19.6841 10.27.0364-.999-.0082-.001zm15.6806-4.843-.6164-.787-.0062.005zm8.8412-14.444.9702.243.0008-.004zm1.3345-5.427.9711.239.0102-.042.0066-.042zm8.7153-55.637-.9831-.1828-.0026.014-.0023.0141zm3.3787-18.1698.9832.1828.0018-.0099.0017-.0099zm1.4343-8.6832v-1h-.8484l-.1382.837zm23.2543 0 .986.1668.1974-1.1668h-1.1834zm-4.7854 28.2814-.986-.1668 1.9231.5159zm9.4694-16.3945-.7614-.6481-.0004.0004zm28.108-12.8822.024-.9998-.009-.0001zm21.519 9.4563-.819.5737 1.345 1.9191.455-2.2983zm1.726-8.6996v-1h-.821l-.16.8054zm22.963 0 .986.1665.197-1.1665h-1.183zm-14.763 87.4146-.986-.167-.003.017-.002.017zm-15.347 28.608-.632-.775zm-32.028 10.206-.018 1zm-17.8496-4.099.4195-.908-.0074-.003zm-14.0124-10.624-.7765-.63-.5117.631.5121.63zm11.677-14.388.7856-.618-.7739-.983-.7881.971zm19.684 10.289.037-.999h-.009zm15.681-4.851-.617-.787-.007.005zm8.841-14.472.97.242.001-.003zm1.334-5.437.972.238.855-3.487-2.535 2.543zm-22.103 10.536.028-1h-.008-.007zm-20.9348-9.787-.7811.624.0027.004zm-8.5075-25.1788.9988-.0485v-.0005zm23.5213-2.1749h1v-.0111l-.001-.0111zm3.252 12.6307-.826.564.006.008.006.009zm-2.752-22.5015-.992-.1261-.002.0155-.001.0155zm23.104-28.27.034-.9994-.006-.0002zm13.262 8.1978.988.1544.046-.2964-.125-.273zm-5.992 38.3187.755.657.189-.218.044-.284zm-18.03 9.191-.04.999h.005zm-40.8141 14.046 5.3681-31.7254-1.9719-.3337-5.3682 31.7261zm-15.7018 29.163c8.8351-7.189 14.0639-16.947 15.7069-29.197l-1.9822-.266c-1.5821 11.796-6.5845 21.075-14.987 27.912zm-32.677 10.411c12.9329.226 23.8488-3.227 32.677-10.411l-1.2623-1.551c-8.4093 6.843-18.8456 10.181-31.3797 9.962zm-18.2505-4.183c5.7972 2.674 11.8834 4.069 18.2501 4.183l.0357-2c-6.0887-.109-11.9019-1.441-17.4481-3.999zm-14.36915-10.881c3.77472 4.638 8.57356 8.264 14.37655 10.884l.8229-1.823c-5.5405-2.501-10.08324-5.943-13.64835-10.323zm11.67665-15.622-11.67698 14.36 1.55176 1.262 11.67702-14.361zm20.4882 9.9c-7.5774-.213-13.8696-3.48-18.9273-9.889l-1.57 1.239c5.3961 6.838 12.2266 10.418 20.4409 10.65zm15.0298-4.625c-4.1306 3.287-9.1169 4.841-15.0216 4.626l-.0727 1.998c6.3283.231 11.7957-1.444 16.3395-5.059zm8.4936-13.904c-1.5124 6.056-4.3538 10.663-8.4874 13.899l1.2328 1.575c4.5407-3.555 7.5935-8.577 9.195-14.989zm1.3336-5.424-1.3345 5.427 1.9421.478 1.3346-5.427zm8.6984-55.5527-8.7153 55.6377 1.9759.309 8.7154-55.6372zm3.3836-18.1979-3.3787 18.1698 1.9662.3656 3.3788-18.1698zm1.4308-8.6634-1.4343 8.6832 1.9733.326 1.4342-8.6832zm24.2409-.837h-23.2543v2h23.2543zm-3.7994 29.4482 4.7854-28.2814-1.972-.3336-4.7854 28.2814zm-.0489.1823c2.2856-6.1358 5.3854-11.4977 9.2943-16.096l-1.5238-1.2953c-4.0712 4.7892-7.2844 10.357-9.6447 16.6931zm9.2943-16.0955c7.261-8.5331 16.348-12.6932 27.332-12.5304l.029-1.9998c-11.592-.1718-21.244 4.2562-28.8844 13.234zm27.323-12.5306c9.461.2194 16.255 2.6502 20.723 9.0303l1.639-1.1474c-4.984-7.1155-12.537-9.6556-22.315-9.8823zm22.523 8.6511 1.726-8.6996-1.962-.3891-1.725 8.6997zm.745-7.8941h22.963v-2h-22.963zm21.977-1.1666-14.763 87.4142 1.972.333 14.763-87.4141zm-14.768 87.4482c-1.582 11.819-6.585 21.116-14.988 27.966l1.264 1.55c8.835-7.202 14.063-16.978 15.706-29.25zm-14.988 27.966c-8.409 6.856-18.845 10.2-31.379 9.981l-.035 2c12.933.226 23.85-3.233 32.678-10.431zm-31.379 9.981c-6.088-.109-11.901-1.444-17.4471-4.007l-.839 1.816c5.7971 2.679 11.8841 4.077 18.2511 4.191zm-17.4545-4.01c-5.5403-2.506-10.0831-5.955-13.6484-10.343l-1.5522 1.261c3.7745 4.646 8.5733 8.279 14.3764 10.904zm-13.648-9.083 11.677-14.387-1.5529-1.261-11.6771 14.388zm10.1149-14.399c5.3958 6.851 12.2266 10.438 20.4416 10.67l.056-1.999c-7.576-.214-13.8685-3.487-18.9264-9.908zm20.4336 10.67c6.329.231 11.796-1.447 16.34-5.069l-1.247-1.564c-4.13 3.293-9.116 4.849-15.02 4.634zm16.334-5.064c4.54-3.562 7.593-8.593 9.194-15.017l-1.94-.484c-1.513 6.068-4.355 10.685-8.488 13.927zm9.195-15.02 1.335-5.438-1.943-.476-1.334 5.437zm-.345-6.382c-6.46 6.479-13.578 10.455-21.367 10.242l-.055 2c8.558.233 16.176-4.149 22.839-10.83zm-21.382 10.242c-8.51-.108-15.199-3.251-20.1693-9.415l-1.5569 1.256c5.3721 6.662 12.6402 10.044 21.7012 10.159zm-20.1667-9.411c-5.0105-6.268-7.797-14.444-8.2898-24.6033l-1.9976.0973c.5081 10.474 3.3932 19.084 8.7252 25.754zm-8.2898-24.6038c-.0378-.7704-.0597-1.5744-.0655-2.4124l-1.9999.0139c.006.8637.0285 1.6959.0678 2.4963zm21.5225-2.1259c0 5.3717 1.11 9.7997 3.426 13.1947l1.652-1.127c-2.02-2.962-3.078-6.956-3.078-12.0677zm.505-9.9659c-.391 4.089-.562 7.4228-.505 9.988l1.999-.0443c-.054-2.4538.109-5.7005.496-9.7534zm8.066-20.5364c-4.322 5.2016-6.989 12.0603-8.063 20.5054l1.984.2523c1.039-8.1735 3.599-14.643 7.617-19.4795zm16.061-8.6381c-6.442-.1794-11.795 3.5045-16.061 8.6381l1.538 1.2782c4.076-4.9044 8.898-8.0722 14.467-7.9171zm14.143 8.7824c-1.268-2.7807-3.096-4.9352-5.492-6.4166-2.39-1.4775-5.287-2.2495-8.645-2.3656l-.069 1.9988c3.093.107 5.632.8128 7.662 2.068 2.024 1.2511 3.602 3.084 4.725 5.5454zm-5.913 38.8887 5.992-38.3193-1.976-.3089-5.992 38.3192zm-19.053 10.035c6.794.237 13.748-3.703 18.82-9.533l-1.509-1.313c-4.825 5.546-11.245 9.057-17.241 8.847zm-10.371-5.354c2.421 3.399 5.918 5.176 10.366 5.354l.08-1.998c-3.892-.157-6.79-1.67-8.817-4.517z" fill="#000" mask="url(#a)"/></svg>