<svg height="348" viewBox="0 0 147 348" width="147" xmlns="http://www.w3.org/2000/svg"><g fill="none" fill-rule="evenodd" transform="translate(-22.573657)"><path d="m109.281897 348c-32.8614654 0-58.7082402-4.253772-58.7082402-9.5s25.8467748-9.5 58.7082402-9.5c32.861465 0 60.29176 4.253772 60.29176 9.5s-27.430295 9.5-60.29176 9.5" fill="#4a4a4a"/><path d="m108.369996 88.3177777s-11.633869.5033947-11.2228448 4.4337967c.5653198 5.4058463 13.6653908 14.7432976 18.0983448 15.0084876 3.853951.22984 18.615326-10.0279447 19.516148-15.6787647.737461-4.6260633-12.066648-4.8345196-12.066648-4.8345196l-.451-17.568-14.448 7.111z" fill="#c2997c"/><g fill="#cca385"><g transform="matrix(.99026807 -.1391731 .1391731 .99026807 .748359 25.211222)"><path d="m69.8779343 94.9583191c-3.411-8.349027-20.5813336-33.4539679-20.6985148-33.4042274l-9.4206401 10.5780095s7.9676289 18.768151 14.4496289 28.2418098c-.108.076109 1.0133711-.5050699 1.0133711-.5050699-1.385 2.5839939 18.6611549-4.5506693 14.6561549-4.910522z" transform="matrix(.51503807 -.8571673 .8571673 .51503807 -42.710962 86.494104)"/><path d="m153.019622 134.869934c-3.411-8.349027-20.581334-33.453968-20.698515-33.404227l-9.42064 10.578009s7.967629 18.768151 14.449629 28.24181c-.108.076109 1.013371-.50507 1.013371-.50507-1.385 2.583994 18.661155-4.550669 14.656155-4.910522z" transform="matrix(-.97437006 -.22495105 .22495105 -.97437006 245.709964 269.803818)"/><path d="m25.7586307 42.789707c-3.411-11.299-12.548-41.95500002-12.548-41.95500002l-12.83367077 10.09269032c-.03488833-.1007009 8.85467082 23.7223097 15.33667077 36.5433097-.108.103-.178.173-.178.173-1.385 3.497.459 7.322 1.375 9.787s1.066 3.72 1.898 6.348c.713 2.247 1.924 5.934 3.282 4.95s-1.193-8.101-.527-8.46c.861-.466 6.599 14.835 8.704 11.402.684-1.116-3.926-9.873-3.796-11.625s7.519 12.465 9.944 10.498c1.465-1.189-7.062-13.544-5.458-12.397 2.057 1.47 7.392 8.179 8.748 8.521s3.006.932-1.303-5.64c-3.158-4.815-6.126-8.064-5.811-9.44.389-1.701 2.699.733 2.699.733 6.219 4.461 6.936.975 7.266-.12.329-1.095-4.695-1.812-7.283-5.113-2.47-3.149-5.51-3.811-9.515-4.298z" transform="matrix(.82903757 -.5591929 -.5591929 -.82903757 41.190866 85.374486)"/></g><path d="m27.6706203 37 4.7884635-6.2097859s-9.9862197-8.4402833-18.5776948-23.47441991c-8.59147521-15.03602649-13.64884158-.94116908-13.64884158-.94116908s8.99645068 24.16948419 27.43807288 30.62537489z" transform="matrix(.27563736 -.9612617 -.9612617 -.27563736 144.475679 307.865)"/><path d="m27.6706203 37 4.7884635-6.2097859s-9.9862197-8.4402833-18.5776948-23.47441991c-8.59147521-15.03602649-13.64884158-.94116908-13.64884158-.94116908s8.99645068 24.16948419 27.43807288 30.62537489z" transform="matrix(-.7313537 -.68199836 .68199836 -.7313537 111.285978 332.648016)"/></g><path d="m110.323777 241-3.75012-58 7.214571 1.286474 4.785429 44.201934zm26.476423-32.074214-4.469805-48.925786c-1.561716.636439-12.408367 4.788913-28.974196 4.127094-12.6663891-.505637-16.3175064-3.154865-16.3175064-3.154865l-.1513215-.613012-1.1504318.023428 8.1888236 105.81292-12.3521061 18.626588s.1804219 7.830546 10.6584688 14.052424l3.5812765-4.790865 1.2144524 17.949151s4.0507615 5.058326 18.1547055 1.965933l-2.741248-42.161177 23.749722-31.77316c3.994501-3.746402 2.081641-19.551963.609166-31.138673z" fill="#193a6c" transform="matrix(-1 0 0 1 220.147314 0)"/><path d="m119.579996 16.0647777c13.73 3.131 13.362 12.564 13.362 12.564s-.427 7.281-.698 15.955c1.27-1.748 3.42-2.478 5.625-1.534 4.674 2 1.22 16.722-5.885 15.449-.306 4.111-.708 7.314-1.236 8.422-1.994 4.188-10.769 10.57-18.547 11.568-7.778.997-17.5509996-4.188-17.5509996-13.363 0-9.174-.119-43.146-.119-43.146s2.313-11.101 25.0489996-5.915" fill="#cca385"/><path d="m117.033996 61.8217777s-7.5 10.75-16.25 2.5z" fill="#fffffe"/><path d="m115.241996 43.8857777c0 2 .89 3.621 1.989 3.621s1.989-1.621 1.989-3.621c0-1.999-.89-3.621-1.989-3.621s-1.989 1.622-1.989 3.621" fill="#15181b"/><path d="m98.4889964 44.6837777c0 2 .891 3.621 1.9889996 3.621 1.099 0 1.989-1.621 1.989-3.621s-.89-3.621-1.989-3.621c-1.0979996 0-1.9889996 1.621-1.9889996 3.621" fill="#15181b"/><path d="m112.010996 35.9497777s.08-.218.292-.539c.206-.329.545-.746 1.017-1.183.479-.422 1.096-.856 1.85-1.17.371-.17.78-.301 1.212-.391.419-.126.893-.121 1.345-.167.469.036.939.031 1.396.162.46.12.905.246 1.297.487.197.112.393.214.571.332.171.131.329.274.476.413.146.143.288.276.415.413.12.143.212.302.305.447.178.296.332.562.422.819.088.259.134.498.174.687.075.38.076.602.076.602s-.232-.081-.566-.23c-.165-.075-.367-.157-.564-.267-.211-.096-.476-.155-.712-.254-.231-.11-.499-.172-.766-.231-.133-.029-.254-.081-.388-.108-.142-.009-.274-.037-.41-.056-.258-.073-.552-.053-.826-.095-.278-.031-.582-.009-.872-.03-.308.029-.606-.003-.923.037-.156.017-.314.022-.472.024-.158.015-.315.039-.475.045-.669.057-1.293.11-1.829.156-.567.045-1.076.07-1.444.086-.367.013-.601.011-.601.011" fill="#1c1c1c"/><path d="m103.823996 35.7077777s-.211.005-.531.001c-.321-.007-.761-.018-1.239-.042-.478-.015-.993-.062-1.49-.068-.25-.022-.489 0-.7229996-.013-.229.014-.452.009-.66.034-.203.024-.412.029-.599.079-.093.027-.203.014-.297.047-.094.032-.188.065-.292.082-.215.021-.395.149-.611.208-.225.052-.408.188-.614.279-.197.102-.426.171-.587.287-.164.108-.339.192-.48.269-.285.151-.488.235-.488.235s-.043-.195-.05-.532c-.003-.337-.014-.836.209-1.384.109-.273.205-.59.432-.866.219-.275.422-.612.765-.84.32-.253.672-.505 1.091-.64.404-.192.839-.246 1.272-.305.861-.054 1.6929996.108 2.3479996.421.673.29 1.188.713 1.576 1.114.379.418.633.815.775 1.126.151.304.193.508.193.508" fill="#1c1c1c"/><path d="m134.227996 56.1767777c-.152 0-.307-.017-.464-.05 1.045-1.545.808-3.691-.884-3.691-.106 0-.219.008-.337.026.087-3.655 1.74-7.109 3.779-7.109.297 0 .603.074.914.231 2.481 1.257.646 10.593-3.008 10.593" fill="#c18778"/><path d="m106.713996 40.0727777c-.147.599-.278 1.195-.405 1.795-.102.606-.253 1.197-.363 1.799l-.664 3.607c-.233 1.199-.422 2.408-.661 3.607-.203 1.206-.417 2.411-.669 3.611l-.147-.285c.715.407 1.436.799 2.145 1.218.705.425 1.418.833 2.113 1.277-.766-.305-1.514-.647-2.27-.972-.753-.332-1.493-.69-2.239-1.033l-.169-.078.022-.207c.258-2.445.637-4.876 1.149-7.283l.413-1.799c.155-.596.33-1.188.494-1.781.342-1.182.727-2.359 1.251-3.476" fill="#c18778"/><path d="m117.466996 62.3117777s-.913.597-2.417 1.235c-.756.304-1.642.665-2.627.942-.981.296-2.054.517-3.136.684-.546.05-1.087.142-1.628.154-.54.024-1.07.053-1.585.017-.515-.02-1.011-.038-1.477-.125-.465-.081-.91-.107-1.307-.225-.4-.093-.763-.194-1.082-.284-.315-.107-.582-.224-.804-.308-.438-.182-.688-.286-.688-.286s.265.055.73.15c.231.048.506.122.827.178.326.037.692.08 1.086.143.392.078.831.062 1.285.098.454.042.938.008 1.435.012.497.017 1.01-.054 1.531-.077.522-.019 1.047-.12 1.575-.174.526-.073 1.051-.165 1.567-.257.51-.121 1.023-.191 1.506-.324.975-.226 1.883-.465 2.651-.705.766-.245 1.415-.433 1.857-.599.446-.159.701-.249.701-.249"/><path d="m143.741996 16.9037777c-2.026-2.568-3.541-1.738-4.506-.434.827-2.224 1.277-5.282-1.744-6.56600001-2.326-.989-3.698-.079-4.508 1.17200001.512-2.55900001.301-5.83400001-3.617-6.92200001-5.315-1.477-6.367 3.633-6.574 5.87300001.042-2.36700001-.384-8.20300001-5.551-8.99800001-4.31-.664-4.823 2.899-4.683 5.379-1.025-3.108-4.216-7.57-8.442-6.129-5.4999996 1.875-1.625 7.75-1.625 7.75-2.7499996-3.125-7.7499996-3.375-9.7499996-.25-2 3.12500001 2.125 6.37500001 2.125 6.37500001s-7.5.25-6.125 8.625 12.8749996.375 12.8749996.375c-.875 2.375-.75 4.25 1.875 4.875s3.875-4 3.875-4-.625 3.625 3.875 4.625 4.75-3.125 4.75-3.125c1.844 4.055 4.972 2.946 6.492 2.084 1.62 6.194 6.338 8.125 6.338 8.125v15.889l1.823-.26 1.898-7.0528947c.302881-.5753953 1.386039-1.4187491 3.210039-1.6787491 1.492641-10.1542375 2.238961-15.2313562 2.238961-15.2313562s9.5-5.75 5.75-10.5z" fill="#1c1c1c"/><g fill="#8a8986" transform="matrix(-1 0 0 1 161.573657 78)"><path d="m37.5047379 8.70517131c-.0031506.09788939-.0047379.19617367-.0047379.29482869 0 4.9705627 4.0294373 9 9 9 4.6113595 0 8.4127015-3.4680969 8.9380356-7.9383004 6.6856385.4007636 13.6622583.2186062 21.4243806 1.4956754l.1375838 4.6501065s-5.3779114 50.3620823-2.5625467 69.2058947c-14.5678365 5.9709111-14.0870029 6.2874817-31.2620461 5.5866238-12.134126-.4946109-15.9834486-2.3823368-15.9834486-5.5866238l-13.1919586-74.1233585s6.0018278-2.48778194 23.5047379-2.58484639z"/><path d="m93.6129209 21.9051725-12.8622874-17.8260295c-5.5511541-1.26604256-17.1588221-.12397449-9.7247634 19.9692855l4.9657951 10.6749553z" transform="matrix(.58778525 -.80901699 .80901699 .58778525 17.883898 73.545894)"/><path d="m0 30.5505546 13.8607881-19.1896395c5.5075338-1.284391 14.7783878-.1257712 7.402745 20.2586949l-3.3548528 11.38039z"/></g><g transform="translate(79.573657 314)"><path d="m13.4189589 9.6777701c-7.486 2.7896775-14.19349251 6.1625468-13.34649465 10.7431284 0 0 3.65265161 2.7147228 23.58014585.4058314l15.8114305-2.1335551 1.375253-12.2865503c-7.6204162 1.02788546-11.791915 1.23337269-12.5144964.6164617-1.4625538-.13012324-.3606347-1.76780118 3.3057573-4.91303383l-6.1093431-2.11005237s-4.6162525 6.8880926-12.1022525 9.6777701z" fill="#e3e3e3"/><path d="m21.3178839 10.6324186 2.6850627-.2822114-.9760643 8.2054809-2.7906007.2933039zm4.4013924-.4626049 2.6870426-.2824196-1.0364705 8.2118299-2.7992083.2942086zm4.4568165-.46843034 2.6848506-.28218917-1.1317545 8.21192951-1.4508498.1624056-1.3581828.1427507z" fill="#cd6767"/></g><g transform="matrix(.61566148 -.78801075 .78801075 .61566148 113.419885 321.344906)"><path d="m13.4189589 9.6777701c-7.486 2.7896775-14.19349251 6.1625468-13.34649465 10.7431284 0 0 3.65265161 2.7147228 23.58014585.4058314l15.8114305-2.1335551 1.375253-12.2865503c-7.6204162 1.02788546-11.791915 1.23337269-12.5144964.6164617-1.4625538-.13012324-.3606347-1.76780118 3.3057573-4.91303383l-6.1093431-2.11005237s-4.6162525 6.8880926-12.1022525 9.6777701z" fill="#e3e3e3"/><path d="m21.3178839 10.6324186 2.6850627-.2822114-.9760643 8.2054809-2.7906007.2933039zm4.4013924-.4626049 2.6870426-.2824196-1.0364705 8.2118299-2.7992083.2942086zm4.4568165-.46843034 2.6848506-.28218917-1.1317545 8.21192951-1.4508498.1624056-1.3581828.1427507z" fill="#cd6767"/></g><path d="m27.6706203 37 4.7884635-6.2097859s-9.9862197-8.4402833-18.5776948-23.47441991c-8.59147521-15.03602649-13.64884158-.94116908-13.64884158-.94116908s8.99645068 24.16948419 27.43807288 30.62537489z" fill="#cca385" transform="matrix(-1 0 0 1 169.109033 129.605231)"/><path d="m127.050933 169.238406s.302 2.064 2.964 2.383c0 0 .398 2.768 3.577 2.065 0 0 .266 1.993 1.171 2.993 1.407 1.555 4.644.492 4.675-6.579 0 0 .842 2.192 3.017 3.044 2.958 1.157 1.562-3.091 1.562-3.091s-.147-4.006-.738-9.438-2.327-6.567-2.327-6.567c-11.103333 8.342667-15.737 13.406-13.901 15.19z" fill="#cca385" transform="matrix(.10452846 -.9945219 -.9945219 -.10452846 286.106832 317.753828)"/></g></svg>