<?xml version="1.0" encoding="UTF-8"?>
<svg width="147px" height="348px" viewBox="0 0 147 348" version="1.1" xmlns="http://www.w3.org/2000/svg" xmlns:xlink="http://www.w3.org/1999/xlink">
    <!-- Generator: Sketch 53.2 (72643) - https://sketchapp.com -->
    <title>ME</title>
    <desc>Created with Sketch.</desc>
    <g id="Page-1" stroke="none" stroke-width="1" fill="none" fill-rule="evenodd">
        <g id="A5-paper" transform="translate(-196.000000, -313.000000)">
            <g id="ME" transform="translate(173.426343, 313.000000)">
                <path d="M109.281897,348 C76.4204316,348 50.5736568,343.746228 50.5736568,338.5 C50.5736568,333.253772 76.4204316,329 109.281897,329 C142.143362,329 169.573657,333.253772 169.573657,338.5 C169.573657,343.746228 142.143362,348 109.281897,348" id="Fill-74" fill="#4A4A4A"></path>
                <path d="M108.369996,88.3177777 C108.369996,88.3177777 96.736127,88.8211724 97.1471512,92.7515744 C97.712471,98.1574207 110.812542,107.494872 115.245496,107.760062 C119.099447,107.989902 133.860822,97.7321173 134.761644,92.0812973 C135.499105,87.455234 122.694996,87.2467777 122.694996,87.2467777 L122.243996,69.6787777 L107.795996,76.7897777 L108.369996,88.3177777 Z" id="Fill-228-Copy" fill="#C2997C"></path>
                <g id="Group-3" transform="translate(89.000000, 85.515848) rotate(-8.000000) translate(-89.000000, -85.515848) translate(10.000000, 13.515848)" fill="#CCA385">
                    <path d="M69.8779343,94.9583191 C66.4669343,86.6092921 49.2966007,61.5043512 49.1794195,61.5540917 L39.7587794,72.1321012 C39.7587794,72.1321012 47.7264083,90.9002522 54.2084083,100.373911 C54.1004083,100.45002 55.2217794,99.8688411 55.2217794,99.8688411 C53.8367794,102.452835 73.8829343,95.3181718 69.8779343,94.9583191 Z" id="Fill-354-Copy" transform="translate(55.083425, 80.992737) rotate(-59.000000) translate(-55.083425, -80.992737) "></path>
                    <path d="M153.019622,134.869934 C149.608622,126.520907 132.438288,101.415966 132.321107,101.465707 L122.900467,112.043716 C122.900467,112.043716 130.868096,130.811867 137.350096,140.285526 C137.242096,140.361635 138.363467,139.780456 138.363467,139.780456 C136.978467,142.36445 157.024622,135.229787 153.019622,134.869934 Z" id="Fill-354-Copy-2" transform="translate(138.225113, 120.904352) rotate(-167.000000) translate(-138.225113, -120.904352) "></path>
                    <g id="Group" transform="translate(38.604633, 43.091967) scale(-1, 1) rotate(-146.000000) translate(-38.604633, -43.091967) translate(17.104633, 6.591967)">
                        <path d="M25.7586307,42.789707 C22.3476307,31.490707 13.2106307,0.834706975 13.2106307,0.834706975 L0.376959933,10.9273973 C0.342071602,10.8266964 9.23163075,34.649707 15.7136307,47.470707 C15.6056307,47.573707 15.5356307,47.643707 15.5356307,47.643707 C14.1506307,51.140707 15.9946307,54.965707 16.9106307,57.430707 C17.8266307,59.895707 17.9766307,61.150707 18.8086307,63.778707 C19.5216307,66.025707 20.7326307,69.712707 22.0906307,68.728707 C23.4486307,67.744707 20.8976307,60.627707 21.5636307,60.268707 C22.4246307,59.802707 28.1626307,75.103707 30.2676307,71.670707 C30.9516307,70.554707 26.3416307,61.797707 26.4716307,60.045707 C26.6016307,58.293707 33.9906307,72.510707 36.4156307,70.543707 C37.8806307,69.354707 29.3536307,56.999707 30.9576307,58.146707 C33.0146307,59.616707 38.3496307,66.325707 39.7056307,66.667707 C41.0616307,67.009707 42.7116307,67.599707 38.4026307,61.027707 C35.2446307,56.212707 32.2766307,52.963707 32.5916307,51.587707 C32.9806307,49.886707 35.2906307,52.320707 35.2906307,52.320707 C41.5096307,56.781707 42.2266307,53.295707 42.5566307,52.200707 C42.8856307,51.105707 37.8616307,50.388707 35.2736307,47.087707 C32.8036307,43.938707 29.7636307,43.276707 25.7586307,42.789707 Z" id="Fill-354"></path>
                    </g>
                </g>
                <g id="arm2-copy" transform="translate(131.240354, 286.904891) scale(-1, 1) rotate(-106.000000) translate(-131.240354, -286.904891) translate(114.740354, 268.404891)" fill="#CCA385">
                    <path d="M27.6706203,37 L32.4590838,30.7902141 C32.4590838,30.7902141 22.4728641,22.3499308 13.881389,7.31579419 C5.28991379,-7.7202323 0.232547418,6.37462511 0.232547418,6.37462511 C0.232547418,6.37462511 9.2289981,30.5441093 27.6706203,37 Z" id="Fill-199"></path>
                </g>
                <g id="arm2-copy-2" transform="translate(111.835612, 307.865000) rotate(-497.000000) translate(-111.835612, -307.865000) translate(95.335612, 289.365000)" fill="#CCA385">
                    <path d="M27.6706203,37 L32.4590838,30.7902141 C32.4590838,30.7902141 22.4728641,22.3499308 13.881389,7.31579419 C5.28991379,-7.7202323 0.232547418,6.37462511 0.232547418,6.37462511 C0.232547418,6.37462511 9.2289981,30.5441093 27.6706203,37 Z" id="Fill-199"></path>
                </g>
                <path d="M110.323777,241 L106.573657,183 L113.788228,184.286474 L118.573657,228.488408 L110.323777,241 Z M136.8002,208.925786 L132.330395,160 C130.768679,160.636439 119.922028,164.788913 103.356199,164.127094 C90.6898099,163.621457 87.0386926,160.972229 87.0386926,160.972229 L86.8873711,160.359217 L85.7369393,160.382645 L93.9257629,266.195565 L81.5736568,284.822153 C81.5736568,284.822153 81.7540787,292.652699 92.2321256,298.874577 L95.8134021,294.083712 L97.0278545,312.032863 C97.0278545,312.032863 101.078616,317.091189 115.18256,313.998796 L112.441312,271.837619 L136.191034,240.064459 C140.185535,236.318057 138.272675,220.512496 136.8002,208.925786 L136.8002,208.925786 Z" id="Fill-81-Copy" fill="#193A6C" transform="translate(110.073657, 237.500000) scale(-1, 1) translate(-110.073657, -237.500000) "></path>
                <path d="M119.579996,16.0647777 C133.309996,19.1957777 132.941996,28.6287777 132.941996,28.6287777 C132.941996,28.6287777 132.514996,35.9097777 132.243996,44.5837777 C133.513996,42.8357777 135.663996,42.1057777 137.868996,43.0497777 C142.542996,45.0497777 139.088996,59.7717777 131.983996,58.4987777 C131.677996,62.6097777 131.275996,65.8127777 130.747996,66.9207777 C128.753996,71.1087777 119.978996,77.4907777 112.200996,78.4887777 C104.422996,79.4857777 94.6499964,74.3007777 94.6499964,65.1257777 C94.6499964,55.9517777 94.5309964,21.9797777 94.5309964,21.9797777 C94.5309964,21.9797777 96.8439964,10.8787777 119.579996,16.0647777" id="Fill-229-Copy" fill="#CCA385"></path>
                <path d="M117.033996,61.8217777 C117.033996,61.8217777 109.533996,72.5717777 100.783996,64.3217777 L117.033996,61.8217777" id="Fill-298-Copy" fill="#FFFFFE"></path>
                <path d="M115.241996,43.8857777 C115.241996,45.8857777 116.131996,47.5067777 117.230996,47.5067777 C118.329996,47.5067777 119.219996,45.8857777 119.219996,43.8857777 C119.219996,41.8867777 118.329996,40.2647777 117.230996,40.2647777 C116.131996,40.2647777 115.241996,41.8867777 115.241996,43.8857777" id="Fill-230-Copy" fill="#15181B"></path>
                <path d="M98.4889964,44.6837777 C98.4889964,46.6837777 99.3799964,48.3047777 100.477996,48.3047777 C101.576996,48.3047777 102.466996,46.6837777 102.466996,44.6837777 C102.466996,42.6837777 101.576996,41.0627777 100.477996,41.0627777 C99.3799964,41.0627777 98.4889964,42.6837777 98.4889964,44.6837777" id="Fill-231-Copy" fill="#15181B"></path>
                <path d="M112.010996,35.9497777 C112.010996,35.9497777 112.090996,35.7317777 112.302996,35.4107777 C112.508996,35.0817777 112.847996,34.6647777 113.319996,34.2277777 C113.798996,33.8057777 114.415996,33.3717777 115.169996,33.0577777 C115.540996,32.8877777 115.949996,32.7567777 116.381996,32.6667777 C116.800996,32.5407777 117.274996,32.5457777 117.726996,32.4997777 C118.195996,32.5357777 118.665996,32.5307777 119.122996,32.6617777 C119.582996,32.7817777 120.027996,32.9077777 120.419996,33.1487777 C120.616996,33.2607777 120.812996,33.3627777 120.990996,33.4807777 C121.161996,33.6117777 121.319996,33.7547777 121.466996,33.8937777 C121.612996,34.0367777 121.754996,34.1697777 121.881996,34.3067777 C122.001996,34.4497777 122.093996,34.6087777 122.186996,34.7537777 C122.364996,35.0497777 122.518996,35.3157777 122.608996,35.5727777 C122.696996,35.8317777 122.742996,36.0707777 122.782996,36.2597777 C122.857996,36.6397777 122.858996,36.8617777 122.858996,36.8617777 C122.858996,36.8617777 122.626996,36.7807777 122.292996,36.6317777 C122.127996,36.5567777 121.925996,36.4747777 121.728996,36.3647777 C121.517996,36.2687777 121.252996,36.2097777 121.016996,36.1107777 C120.785996,36.0007777 120.517996,35.9387777 120.250996,35.8797777 C120.117996,35.8507777 119.996996,35.7987777 119.862996,35.7717777 C119.720996,35.7627777 119.588996,35.7347777 119.452996,35.7157777 C119.194996,35.6427777 118.900996,35.6627777 118.626996,35.6207777 C118.348996,35.5897777 118.044996,35.6117777 117.754996,35.5907777 C117.446996,35.6197777 117.148996,35.5877777 116.831996,35.6277777 C116.675996,35.6447777 116.517996,35.6497777 116.359996,35.6517777 C116.201996,35.6667777 116.044996,35.6907777 115.884996,35.6967777 C115.215996,35.7537777 114.591996,35.8067777 114.055996,35.8527777 C113.488996,35.8977777 112.979996,35.9227777 112.611996,35.9387777 C112.244996,35.9517777 112.010996,35.9497777 112.010996,35.9497777" id="Fill-232-Copy" fill="#1C1C1C"></path>
                <path d="M103.823996,35.7077777 C103.823996,35.7077777 103.612996,35.7127777 103.292996,35.7087777 C102.971996,35.7017777 102.531996,35.6907777 102.053996,35.6667777 C101.575996,35.6517777 101.060996,35.6047777 100.563996,35.5987777 C100.313996,35.5767777 100.074996,35.5987777 99.8409964,35.5857777 C99.6119964,35.5997777 99.3889964,35.5947777 99.1809964,35.6197777 C98.9779964,35.6437777 98.7689964,35.6487777 98.5819964,35.6987777 C98.4889964,35.7257777 98.3789964,35.7127777 98.2849964,35.7457777 C98.1909964,35.7777777 98.0969964,35.8107777 97.9929964,35.8277777 C97.7779964,35.8487777 97.5979964,35.9767777 97.3819964,36.0357777 C97.1569964,36.0877777 96.9739964,36.2237777 96.7679964,36.3147777 C96.5709964,36.4167777 96.3419964,36.4857777 96.1809964,36.6017777 C96.0169964,36.7097777 95.8419964,36.7937777 95.7009964,36.8707777 C95.4159964,37.0217777 95.2129964,37.1057777 95.2129964,37.1057777 C95.2129964,37.1057777 95.1699964,36.9107777 95.1629964,36.5737777 C95.1599964,36.2367777 95.1489964,35.7377777 95.3719964,35.1897777 C95.4809964,34.9167777 95.5769964,34.5997777 95.8039964,34.3237777 C96.0229964,34.0487777 96.2259964,33.7117777 96.5689964,33.4837777 C96.8889964,33.2307777 97.2409964,32.9787777 97.6599964,32.8437777 C98.0639964,32.6517777 98.4989964,32.5977777 98.9319964,32.5387777 C99.7929964,32.4847777 100.624996,32.6467777 101.279996,32.9597777 C101.952996,33.2497777 102.467996,33.6727777 102.855996,34.0737777 C103.234996,34.4917777 103.488996,34.8887777 103.630996,35.1997777 C103.781996,35.5037777 103.823996,35.7077777 103.823996,35.7077777" id="Fill-233-Copy" fill="#1C1C1C"></path>
                <path d="M134.227996,56.1767777 C134.075996,56.1767777 133.920996,56.1597777 133.763996,56.1267777 C134.808996,54.5817777 134.571996,52.4357777 132.879996,52.4357777 C132.773996,52.4357777 132.660996,52.4437777 132.542996,52.4617777 C132.629996,48.8067777 134.282996,45.3527777 136.321996,45.3527777 C136.618996,45.3527777 136.924996,45.4267777 137.235996,45.5837777 C139.716996,46.8407777 137.881996,56.1767777 134.227996,56.1767777" id="Fill-234-Copy" fill="#C18778"></path>
                <path d="M106.713996,40.0727777 C106.566996,40.6717777 106.435996,41.2677777 106.308996,41.8677777 C106.206996,42.4737777 106.055996,43.0647777 105.945996,43.6667777 L105.281996,47.2737777 C105.048996,48.4727777 104.859996,49.6817777 104.620996,50.8807777 C104.417996,52.0867777 104.203996,53.2917777 103.951996,54.4917777 L103.804996,54.2067777 C104.519996,54.6137777 105.240996,55.0057777 105.949996,55.4247777 C106.654996,55.8497777 107.367996,56.2577777 108.062996,56.7017777 C107.296996,56.3967777 106.548996,56.0547777 105.792996,55.7297777 C105.039996,55.3977777 104.299996,55.0397777 103.553996,54.6967777 L103.384996,54.6187777 L103.406996,54.4117777 C103.664996,51.9667777 104.043996,49.5357777 104.555996,47.1287777 L104.968996,45.3297777 C105.123996,44.7337777 105.298996,44.1417777 105.462996,43.5487777 C105.804996,42.3667777 106.189996,41.1897777 106.713996,40.0727777" id="Fill-235-Copy" fill="#C18778"></path>
                <path d="M117.466996,62.3117777 C117.466996,62.3117777 116.553996,62.9087777 115.049996,63.5467777 C114.293996,63.8507777 113.407996,64.2117777 112.422996,64.4887777 C111.441996,64.7847777 110.368996,65.0057777 109.286996,65.1727777 C108.740996,65.2227777 108.199996,65.3147777 107.658996,65.3267777 C107.118996,65.3507777 106.588996,65.3797777 106.073996,65.3437777 C105.558996,65.3237777 105.062996,65.3057777 104.596996,65.2187777 C104.131996,65.1377777 103.686996,65.1117777 103.289996,64.9937777 C102.889996,64.9007777 102.526996,64.7997777 102.207996,64.7097777 C101.892996,64.6027777 101.625996,64.4857777 101.403996,64.4017777 C100.965996,64.2197777 100.715996,64.1157777 100.715996,64.1157777 C100.715996,64.1157777 100.980996,64.1707777 101.445996,64.2657777 C101.676996,64.3137777 101.951996,64.3877777 102.272996,64.4437777 C102.598996,64.4807777 102.964996,64.5237777 103.358996,64.5867777 C103.750996,64.6647777 104.189996,64.6487777 104.643996,64.6847777 C105.097996,64.7267777 105.581996,64.6927777 106.078996,64.6967777 C106.575996,64.7137777 107.088996,64.6427777 107.609996,64.6197777 C108.131996,64.6007777 108.656996,64.4997777 109.184996,64.4457777 C109.710996,64.3727777 110.235996,64.2807777 110.751996,64.1887777 C111.261996,64.0677777 111.774996,63.9977777 112.257996,63.8647777 C113.232996,63.6387777 114.140996,63.3997777 114.908996,63.1597777 C115.674996,62.9147777 116.323996,62.7267777 116.765996,62.5607777 C117.211996,62.4017777 117.466996,62.3117777 117.466996,62.3117777" id="Fill-236-Copy"></path>
                <path d="M143.741996,16.9037777 C141.715996,14.3357777 140.200996,15.1657777 139.235996,16.4697777 C140.062996,14.2457777 140.512996,11.1877777 137.491996,9.90377769 C135.165996,8.91477769 133.793996,9.82477769 132.983996,11.0757777 C133.495996,8.51677769 133.284996,5.24177769 129.366996,4.15377769 C124.051996,2.67677769 122.999996,7.78677769 122.792996,10.0267777 C122.834996,7.65977769 122.408996,1.82377769 117.241996,1.02877769 C112.931996,0.36477769 112.418996,3.92777769 112.558996,6.40777769 C111.533996,3.29977769 108.342996,-1.16222231 104.116996,0.27877769 C98.6169964,2.15377769 102.491996,8.02877769 102.491996,8.02877769 C99.7419964,4.90377769 94.7419964,4.65377769 92.7419964,7.77877769 C90.7419964,10.9037777 94.8669964,14.1537777 94.8669964,14.1537777 C94.8669964,14.1537777 87.3669964,14.4037777 88.7419964,22.7787777 C90.1169964,31.1537777 101.616996,23.1537777 101.616996,23.1537777 C100.741996,25.5287777 100.866996,27.4037777 103.491996,28.0287777 C106.116996,28.6537777 107.366996,24.0287777 107.366996,24.0287777 C107.366996,24.0287777 106.741996,27.6537777 111.241996,28.6537777 C115.741996,29.6537777 115.991996,25.5287777 115.991996,25.5287777 C117.835996,29.5837777 120.963996,28.4747777 122.483996,27.6127777 C124.103996,33.8067777 128.821996,35.7377777 128.821996,35.7377777 L128.821996,51.6267777 L130.644996,51.3667777 L132.542996,44.313883 C132.845877,43.7384877 133.929035,42.8951339 135.753035,42.6351339 C137.245676,32.4808964 137.991996,27.4037777 137.991996,27.4037777 C137.991996,27.4037777 147.491996,21.6537777 143.741996,16.9037777 Z" id="Fill-237-Copy" fill="#1C1C1C"></path>
                <g id="shirt" transform="translate(111.073657, 124.000000) scale(-1, 1) translate(-111.073657, -124.000000) translate(60.573657, 78.000000)" fill="#8A8986">
                    <path d="M37.5047379,8.70517131 C37.5015873,8.8030607 37.5,8.90134498 37.5,9 C37.5,13.9705627 41.5294373,18 46.5,18 C51.1113595,18 54.9127015,14.5319031 55.4380356,10.0616996 C62.1236741,10.4624632 69.1002939,10.2803058 76.8624162,11.557375 L77,16.2074815 C77,16.2074815 71.6220886,66.5695638 74.4374533,85.4133762 C59.8696168,91.3842873 60.3504504,91.7008579 43.1754072,91 C31.0412812,90.5053891 27.1919586,88.6176632 27.1919586,85.4133762 L14,11.2900177 C14,11.2900177 20.0018278,8.80223576 37.5047379,8.70517131 Z" id="Combined-Shape"></path>
                    <path d="M93.6129209,21.9051725 L80.7506335,4.079143 C75.1994794,2.81310044 63.5918114,3.95516851 71.0258701,24.0484285 L75.9916652,34.7233838 L93.6129209,21.9051725" id="Fill-128" transform="translate(81.112921, 19.223384) rotate(-54.000000) translate(-81.112921, -19.223384) "></path>
                    <path d="M0,30.5505546 L13.8607881,11.3609151 C19.3683219,10.0765241 28.6391759,11.2351439 21.2635331,31.61961 L17.9086803,43 L0,30.5505546" id="Fill-129"></path>
                </g>
                <g id="shoe" transform="translate(79.573657, 314.000000)">
                    <path d="M13.4189589,9.6777701 C5.9329589,12.4674476 -0.774533613,15.8403169 0.07246425,20.4208985 C0.07246425,20.4208985 3.72511586,23.1356213 23.6526101,20.8267299 L39.4640406,18.6931748 L40.8392936,6.4066245 C33.2188774,7.43450996 29.0473786,7.63999719 28.3247972,7.0230862 C26.8622434,6.89296296 27.9641625,5.25528502 31.6305545,2.11005237 L25.5212114,0 C25.5212114,0 20.9049589,6.8880926 13.4189589,9.6777701 Z" id="Fill-76" fill="#E3E3E3"></path>
                    <path d="M21.3178839,10.6324186 L24.0029466,10.3502072 L23.0268823,18.5556881 L20.2362816,18.848992 L21.3178839,10.6324186 Z M25.7192763,10.1698137 L28.4063189,9.8873941 L27.3698484,18.099224 L24.5706401,18.3934326 L25.7192763,10.1698137 Z M30.1760928,9.70138336 L32.8609434,9.41919419 L31.7291889,17.6311237 L30.2783391,17.7935293 L28.9201563,17.93628 L30.1760928,9.70138336 Z" id="Combined-Shape" fill="#CD6767"></path>
                </g>
                <g id="shoe-copy" transform="translate(134.709064, 311.962962) rotate(-52.000000) translate(-134.709064, -311.962962) translate(114.209064, 300.962962)">
                    <path d="M13.4189589,9.6777701 C5.9329589,12.4674476 -0.774533613,15.8403169 0.07246425,20.4208985 C0.07246425,20.4208985 3.72511586,23.1356213 23.6526101,20.8267299 L39.4640406,18.6931748 L40.8392936,6.4066245 C33.2188774,7.43450996 29.0473786,7.63999719 28.3247972,7.0230862 C26.8622434,6.89296296 27.9641625,5.25528502 31.6305545,2.11005237 L25.5212114,0 C25.5212114,0 20.9049589,6.8880926 13.4189589,9.6777701 Z" id="Fill-76" fill="#E3E3E3"></path>
                    <path d="M21.3178839,10.6324186 L24.0029466,10.3502072 L23.0268823,18.5556881 L20.2362816,18.848992 L21.3178839,10.6324186 Z M25.7192763,10.1698137 L28.4063189,9.8873941 L27.3698484,18.099224 L24.5706401,18.3934326 L25.7192763,10.1698137 Z M30.1760928,9.70138336 L32.8609434,9.41919419 L31.7291889,17.6311237 L30.2783391,17.7935293 L28.9201563,17.93628 L30.1760928,9.70138336 Z" id="Combined-Shape" fill="#CD6767"></path>
                </g>
                <g id="arm2" transform="translate(152.609033, 148.105231) scale(-1, 1) translate(-152.609033, -148.105231) translate(136.109033, 129.605231)" fill="#CCA385">
                    <path d="M27.6706203,37 L32.4590838,30.7902141 C32.4590838,30.7902141 22.4728641,22.3499308 13.881389,7.31579419 C5.28991379,-7.7202323 0.232547418,6.37462511 0.232547418,6.37462511 C0.232547418,6.37462511 9.2289981,30.5441093 27.6706203,37 Z" id="Fill-199"></path>
                </g>
                <path d="M127.050933,169.238406 C127.050933,169.238406 127.352933,171.302406 130.014933,171.621406 C130.014933,171.621406 130.412933,174.389406 133.591933,173.686406 C133.591933,173.686406 133.857933,175.679406 134.762933,176.679406 C136.169933,178.234406 139.406933,177.171406 139.437933,170.100406 C139.437933,170.100406 140.279933,172.292406 142.454933,173.144406 C145.412933,174.301406 144.016933,170.053406 144.016933,170.053406 C144.016933,170.053406 143.869933,166.047406 143.278933,160.615406 C142.687933,155.183406 140.951933,154.048406 140.951933,154.048406 C129.8486,162.391073 125.214933,167.454406 127.050933,169.238406 Z" id="Fill-357" fill="#CCA385" transform="translate(135.503116, 165.675235) scale(-1, 1) rotate(-96.000000) translate(-135.503116, -165.675235) "></path>
            </g>
        </g>
    </g>
</svg>