<svg viewBox="0 0 850 850" xmlns="http://www.w3.org/2000/svg"><path d="m850 497.78v321.79a30.36 30.36 0 1 1 -60.71 0v-6.07h-728.58v6.07a30.36 30.36 0 1 1 -60.71 0v-321.79a30.35 30.35 0 0 1 30.36-30.35h789.28a30.35 30.35 0 0 1 30.36 30.35zm-789.29 255v-224.64h728.58v224.64z" fill="#010101" fill-rule="evenodd"/><circle cx="425" cy="640.46" fill="#333" r="42.5" stroke="#333" stroke-width="10"/><circle cx="425" cy="640.46" fill="#fff" r="21.25"/><circle cx="425" cy="640.46" fill="none" r="39.46" stroke="#010101" stroke-width="36"/><path d="m204.44 350.71q0-22.15-51.29-31.77h-.59q-22.73-4.37-39.34-12.24t-24.48-20.11q-7.58-12.52-7.58-25.59 0-25.35 22.15-41.68 22.44-16.32 51.58-16.32a84.15 84.15 0 0 1 26.23 4.38q13.41 4.36 19.82 8.16 6.7 3.78 17.49 10.78a14.71 14.71 0 0 1 6.12 9.62 13.88 13.88 0 0 1 -2 11.36 14.65 14.65 0 0 1 -20.7 4.08 151.72 151.72 0 0 0 -24.48-14 54.57 54.57 0 0 0 -22.44-4.66q-19.23 0-31.47 9t-12.28 19.28a14.92 14.92 0 0 0 2.33 8.45q8.16 13.41 44 20.11h.58q24.48 5 40.22 12.24 36.13 17.78 36.13 49 0 27.1-23.89 44.59-23.9 17.19-55.08 17.19-38.17-.28-74.61-29.14a15.31 15.31 0 0 1 -5.54-10.2 14.79 14.79 0 0 1 3.21-11.08 14.27 14.27 0 0 1 10.2-5.24 13.32 13.32 0 0 1 11.08 3.08q28 22.74 55.67 22.44 21.86 0 35.26-9.9 13.7-10.17 13.7-21.83zm97.62-83.64a15.47 15.47 0 0 1 11.37 4.66 15 15 0 0 1 4.95 11.37 16.43 16.43 0 0 1 -16.32 16h-7.28v81.3a15 15 0 0 1 11.36 5 16 16 0 0 1 -11.36 27.39 31.85 31.85 0 0 1 -32.35-32.35v-81.3h-8.43a16 16 0 1 1 0-32.06h8.45v-42.27a15.43 15.43 0 0 1 4.66-11.36 16.47 16.47 0 0 1 11.66-4.67 15.93 15.93 0 0 1 16 16v42.26zm98 145.71q-29.43 0-49.54-21.27-19.83-21.27-19.82-51.29 0-30.32 19.82-51.59 20.1-21.56 49.54-21.56 20.68 0 38.76 12.82a17.39 17.39 0 0 1 5.54-9 14.47 14.47 0 0 1 20.4.87 15.17 15.17 0 0 1 4.66 11.08v114.5a15.16 15.16 0 0 1 -4.66 11.07 14.31 14.31 0 0 1 -10.5 4.37 14.7 14.7 0 0 1 -9.9-3.49 17.46 17.46 0 0 1 -5.54-9 65.83 65.83 0 0 1 -38.72 12.49zm-38.18-72.56q0 17.47 10.49 29.43 10.79 12 27.4 12 16.9 0 27.68-12 11.08-11.94 11.08-29.43t-11.08-29.73a35.77 35.77 0 0 0 -27.68-12.24 34.61 34.61 0 0 0 -27.11 12.24q-10.73 11.95-10.74 29.73zm231.47-57.12a14.53 14.53 0 0 1 6.42 9.91 15.4 15.4 0 0 1 -1.77 11.65 15.63 15.63 0 0 1 -9.91 6.71 15 15 0 0 1 -11.66-2.63q-16.3-10.74-27.08-10.74-10.5 0-17.2 5.25c-3.1 2.13-4.66 4.08-4.66 5.82a8.26 8.26 0 0 0 .58 3.5 12.23 12.23 0 0 0 3.21 2.62q6.4 4.38 21.27 7l.3.29h.29a123.63 123.63 0 0 1 28.27 8.74q12.81 5.83 18.94 16t6.12 20.11q0 20.4-18.36 33.81a65.21 65.21 0 0 1 -37.89 11.65q-27.11-.28-51.87-20.11a15.23 15.23 0 0 1 -5.54-10.2 14.6 14.6 0 0 1 3.5-11.36 13.78 13.78 0 0 1 10.49-5.83 14.61 14.61 0 0 1 11.37 3.5q15.74 13.11 32.05 12.82a36.26 36.26 0 0 0 19.78-5.55q5.25-4.37 5.25-7.28c0-2.14-.3-3.6-.88-4.37-.39-1-1.65-2.14-3.79-3.5q-7-4.95-23.31-8.16h-.27a111.22 111.22 0 0 1 -27.11-8.45 45.9 45.9 0 0 1 -18.36-16 34.7 34.7 0 0 1 -4.95-18.36q0-18.95 17.19-32.06a61.92 61.92 0 0 1 35.85-10.78q20.38-.03 43.73 16zm62.43 113.65a15 15 0 0 1 -5 11.37 15.47 15.47 0 0 1 -11.37 4.66 16.09 16.09 0 0 1 -11.36-4.66 15.47 15.47 0 0 1 -4.66-11.37v-171.94a16.07 16.07 0 0 1 27.39-11.36 15 15 0 0 1 5 11.36v50.71q16-8.44 31.18-8.45 26.22 0 44.88 18.94 18.64 18.66 18.65 44.88v65.86a16 16 0 1 1 -32.06 0v-65.86a29.35 29.35 0 0 0 -9.32-21.89 30.68 30.68 0 0 0 -22.11-9.58 30.33 30.33 0 0 0 -21.9 9.58 30.83 30.83 0 0 0 -9.32 21.86z" fill="#010101"/></svg>