<svg width="280" height="235" viewBox="0 0 280 235" fill="none" xmlns="http://www.w3.org/2000/svg">
<path fill-rule="evenodd" clip-rule="evenodd" d="M280 119V225C280 230.523 275.523 235 270 235C264.477 235 260 230.523 260 225V223H20V225C20 230.523 15.5228 235 10 235C4.47715 235 0 230.523 0 225V119C0 113.477 4.47715 109 10 109L270 109C275.523 109 280 113.477 280 119ZM20 203V129L260 129V203H20Z" fill="black"/>
<circle cx="140" cy="166" r="14" fill="#333333" stroke="#333333" stroke-width="10"/>
<circle cx="140" cy="166" r="7" fill="white"/>
<circle cx="140" cy="166" r="13" stroke="black" stroke-width="10"/>
<path d="M67.344 70.552C67.344 65.688 61.712 62.2 50.448 60.088H50.256C45.264 59.128 40.944 57.784 37.296 56.056C33.648 54.328 30.96 52.12 29.232 49.432C27.568 46.68 26.736 43.864 26.736 40.984C26.736 35.416 29.168 30.84 34.032 27.256C38.96 23.672 44.624 21.88 51.024 21.88C53.84 21.88 56.72 22.36 59.664 23.32C62.608 24.28 64.784 25.176 66.192 26.008C67.664 26.84 69.584 28.024 71.952 29.56C73.04 30.328 73.712 31.384 73.968 32.728C74.288 34.072 74.064 35.32 73.296 36.472C72.592 37.56 71.568 38.264 70.224 38.584C68.88 38.84 67.632 38.584 66.48 37.816C63.472 35.768 60.784 34.232 58.416 33.208C56.112 32.184 53.648 31.672 51.024 31.672C46.8 31.672 43.344 32.664 40.656 34.648C37.968 36.632 36.624 38.744 36.624 40.984C36.624 42.072 36.88 43 37.392 43.768C39.184 46.712 44.016 48.92 51.888 50.392H52.08C57.456 51.48 61.872 52.824 65.328 54.424C73.264 58.328 77.232 63.704 77.232 70.552C77.232 76.504 74.608 81.4 69.36 85.24C64.112 89.016 58.064 90.904 51.216 90.904C42.832 90.84 34.64 87.64 26.64 81.304C25.616 80.472 25.008 79.352 24.816 77.944C24.688 76.536 25.04 75.32 25.872 74.296C26.704 73.272 27.824 72.696 29.232 72.568C30.64 72.376 31.856 72.728 32.88 73.624C39.024 78.616 45.136 81.08 51.216 81.016C56.016 81.016 59.888 79.928 62.832 77.752C65.84 75.512 67.344 73.112 67.344 70.552ZM99.5033 43C100.975 43 102.223 43.512 103.247 44.536C104.335 45.56 104.879 46.808 104.879 48.28C104.879 49.688 104.335 50.936 103.247 52.024C102.223 53.048 100.975 53.56 99.5033 53.56H97.1033V80.344C98.5753 80.344 99.8233 80.888 100.847 81.976C101.871 83 102.383 84.248 102.383 85.72C102.383 87.192 101.871 88.44 100.847 89.464C99.8233 90.488 98.5753 91 97.1033 91C94.1593 91 91.6313 89.976 89.5193 87.928C87.4713 85.816 86.4472 83.288 86.4472 80.344V53.56H83.6632C82.1912 53.56 80.9432 53.048 79.9192 52.024C78.8952 51 78.3832 49.752 78.3832 48.28C78.3832 46.808 78.8952 45.56 79.9192 44.536C80.9432 43.512 82.1912 43 83.6632 43H86.4472V29.08C86.4472 27.608 86.9592 26.36 87.9833 25.336C89.0713 24.312 90.3513 23.8 91.8233 23.8C93.2953 23.8 94.5433 24.312 95.5673 25.336C96.5913 26.36 97.1033 27.608 97.1033 29.08V43H99.5033ZM131.797 91C125.333 91 119.893 88.664 115.477 83.992C111.125 79.32 108.949 73.688 108.949 67.096C108.949 60.44 111.125 54.776 115.477 50.104C119.893 45.368 125.333 43 131.797 43C136.341 43 140.597 44.408 144.565 47.224C144.885 46.008 145.493 45.016 146.389 44.248C147.285 43.416 148.373 43 149.653 43C150.997 43 152.149 43.512 153.109 44.536C154.133 45.56 154.645 46.776 154.645 48.184V85.912C154.645 87.32 154.133 88.536 153.109 89.56C152.149 90.52 150.997 91 149.653 91C148.373 91 147.285 90.616 146.389 89.848C145.493 89.08 144.885 88.088 144.565 86.872C140.661 89.624 136.405 91 131.797 91ZM119.221 67.096C119.221 70.936 120.373 74.168 122.677 76.792C125.045 79.416 128.053 80.728 131.701 80.728C135.413 80.728 138.453 79.416 140.821 76.792C143.253 74.168 144.469 70.936 144.469 67.096C144.469 63.256 143.253 59.992 140.821 57.304C138.389 54.616 135.349 53.272 131.701 53.272C128.117 53.272 125.141 54.616 122.773 57.304C120.405 59.928 119.221 63.192 119.221 67.096ZM195.458 48.28C196.61 49.048 197.314 50.136 197.57 51.544C197.89 52.888 197.698 54.168 196.994 55.384C196.226 56.536 195.138 57.272 193.73 57.592C192.386 57.848 191.106 57.56 189.89 56.728C186.306 54.36 183.33 53.176 180.962 53.176C178.658 53.176 176.77 53.752 175.298 54.904C174.274 55.608 173.762 56.248 173.762 56.824C173.762 57.336 173.826 57.72 173.954 57.976C174.146 58.232 174.498 58.52 175.01 58.84C176.418 59.8 178.754 60.568 182.018 61.144L182.114 61.24H182.21C185.602 61.88 188.706 62.84 191.522 64.12C194.338 65.4 196.418 67.16 197.762 69.4C199.106 71.64 199.778 73.848 199.778 76.024C199.778 80.504 197.762 84.216 193.73 87.16C190.018 89.72 185.858 91 181.25 91C175.298 90.936 169.602 88.728 164.162 84.376C163.138 83.544 162.53 82.424 162.338 81.016C162.21 79.544 162.594 78.296 163.49 77.272C164.322 76.12 165.474 75.48 166.946 75.352C168.418 75.224 169.666 75.608 170.69 76.504C174.146 79.384 177.666 80.792 181.25 80.728C183.682 80.728 185.858 80.12 187.778 78.904C188.93 77.944 189.506 77.144 189.506 76.504C189.506 75.8 189.41 75.32 189.218 75.064C189.09 74.744 188.674 74.36 187.97 73.912C186.434 72.824 183.874 71.928 180.29 71.224H180.194C176.802 70.584 173.826 69.656 171.266 68.44C168.77 67.224 166.754 65.464 165.218 63.16C164.13 61.368 163.586 59.352 163.586 57.112C163.586 52.952 165.474 49.432 169.25 46.552C172.706 44.184 176.642 43 181.058 43C185.538 43 190.338 44.76 195.458 48.28ZM216.02 85.72C216.02 87.192 215.476 88.44 214.388 89.464C213.364 90.488 212.116 91 210.644 91C209.236 91 207.988 90.488 206.9 89.464C205.876 88.44 205.364 87.192 205.364 85.72V29.08C205.364 27.608 205.876 26.36 206.9 25.336C207.924 24.312 209.172 23.8 210.644 23.8C212.116 23.8 213.364 24.312 214.388 25.336C215.476 26.36 216.02 27.608 216.02 29.08V45.784C219.54 43.928 222.964 43 226.292 43C232.052 43 236.98 45.08 241.076 49.24C245.172 53.336 247.22 58.264 247.22 64.024V85.72C247.22 87.192 246.708 88.44 245.684 89.464C244.66 90.488 243.412 91 241.94 91C240.468 91 239.22 90.488 238.196 89.464C237.172 88.44 236.66 87.192 236.66 85.72V64.024C236.66 61.208 235.636 58.808 233.588 56.824C231.604 54.776 229.172 53.72 226.292 53.656C223.476 53.72 221.076 54.776 219.092 56.824C217.108 58.808 216.084 61.208 216.02 64.024V85.72Z" fill="black"/>
</svg>
