<svg fill="none" height="225" viewBox="0 0 225 225" width="225" xmlns="http://www.w3.org/2000/svg"><g fill="#000"><path d="m3.32812 91v-23.6719h8.15628v5.7657c3.9062 7.0937 9.0156 10.6406 15.3281 10.6406 3.2187 0 5.9375-.9844 8.1563-2.9532 2.2187-1.9687 3.3281-4.5468 3.3281-7.7343 0-3.0938-.9063-5.3125-2.7188-6.6563-1.8125-1.375-5.2343-2.7344-10.2656-4.0781-5.8437-1.5625-10.1719-3.0313-12.9844-4.4063-2.81248-1.4062-5.06248-3.3906-6.74998-5.9531-1.65624-2.5937-2.48437-5.6562-2.48437-9.1875 0-5.4687 1.8125-9.8281 5.4375-13.0781 3.65625-3.2813 8.23435-4.9219 13.73435-4.9219 5.2188 0 10.0625 1.6875 14.5313 5.0625v-4.3593h7.9687v19.7812h-7.9687v-4.5469c-3.3438-5.0312-7.9531-7.5469-13.8281-7.5469-3.5626 0-6.2969.8282-8.2032 2.4844-1.9062 1.625-2.8594 3.5782-2.8594 5.8594 0 1.75.4844 3.2969 1.4532 4.6406.9687 1.3125 2.2031 2.2813 3.7031 2.9063s4.4531 1.5 8.8594 2.625c5.75 1.5 9.9219 2.9062 12.5156 4.2187 2.5937 1.2813 4.8281 3.4375 6.7031 6.4688 1.875 3.0312 2.8125 6.5156 2.8125 10.4531 0 5.5625-1.9687 10.1563-5.9062 13.7813-3.9063 3.625-8.75 5.4374-14.5313 5.4374-5.9375 0-11.2812-2.1406-16.0312-6.4218v5.3906zm47.69808-37.4531v-7.9219h5.9063v-6.9844l8.9062-8.1562v15.1406h8.3907v7.9219h-8.3907v22.0312c0 3.5313.1875 5.7188.5625 6.5625.4063.8125 1.3907 1.2188 2.9532 1.2188 1.6562 0 3.2812-.3125 4.875-.9375v8.1093c-2.2813.8126-4.5625 1.2188-6.8438 1.2188-2.7187 0-4.9219-.5938-6.6094-1.7812-1.6875-1.2188-2.75-2.7344-3.1875-4.5469s-.6562-4.9375-.6562-9.375v-22.5zm72.9168 29.5312v7.9219h-15.562v-5.5312c-4.313 4.1874-9.1254 6.2812-14.4379 6.2812-4.125 0-7.7187-1.3438-10.7812-4.0312-3.0313-2.6876-4.5469-6.125-4.5469-10.3126 0-4.2187 1.6094-7.7187 4.8281-10.5 3.25-2.7812 7.1563-4.1718 11.7188-4.1718 4.25 0 8.3591 1.2812 12.3281 3.8437v-4.5c0-2.3125-.219-4.0937-.656-5.3437-.438-1.25-1.469-2.375-3.094-3.375-1.594-1-3.688-1.5-6.2813-1.5-4.4687 0-7.7031 1.7812-9.7031 5.3437l-8.5312-2.25c3.7812-7.0625 10.3125-10.5937 19.5937-10.5937 3.4059 0 6.3439.4687 8.8129 1.4062 2.5.9063 4.359 2.0938 5.578 3.5625 1.218 1.4375 2.031 3 2.437 4.6875.438 1.6875.656 4.375.656 8.0625v21zm-16.453-8.9531c-3.844-3-7.7344-4.5-11.6719-4.5-2.4687 0-4.5312.7188-6.1875 2.1562-1.6562 1.4376-2.4844 3.2969-2.4844 5.5782 0 2.125.7188 3.9062 2.1563 5.3437 1.4687 1.4375 3.4531 2.1563 5.9531 2.1563 4.3125 0 8.3904-1.8125 12.2344-5.4375zm20.696 16.875v-15.5625h7.969v1.5c.281 2.125 1.422 3.875 3.422 5.25 2.031 1.375 4.422 2.0625 7.172 2.0625 2.875 0 5.172-.5 6.89-1.5 1.719-1 2.578-2.3906 2.578-4.1719 0-1.7187-.718-2.9843-2.156-3.7969-1.406-.8124-4.219-1.5624-8.437-2.25-6.25-1.0624-10.719-2.7656-13.407-5.1093-2.656-2.375-3.984-5.4375-3.984-9.1875 0-3.7813 1.453-6.9375 4.359-9.4688 2.907-2.5625 6.735-3.8437 11.485-3.8437 4.281 0 7.969.875 11.062 2.625v-1.9219h7.922v15.0469h-7.922v-2.7657c-2.406-3.7187-5.906-5.5781-10.5-5.5781-2.343 0-4.281.5157-5.812 1.5469-1.5 1-2.25 2.3438-2.25 4.0312 0 1.7188.687 2.9063 2.062 3.5626 1.407.625 4.407 1.2968 9 2.0156 4.407.6875 7.735 1.5 9.985 2.4375 2.25.9062 4.109 2.4375 5.578 4.5937 1.5 2.125 2.25 4.6094 2.25 7.4532 0 4.2187-1.625 7.5781-4.875 10.0781-3.219 2.4687-7.406 3.7031-12.563 3.7031-4.843 0-8.797-1.0938-11.859-3.2812v2.5312zm49.243-7.9219v-49.3593h-8.203v-7.9219h17.11v25.0312c5.343-4.3125 10.422-6.4687 15.234-6.4687 3 0 5.469.625 7.406 1.875 1.938 1.25 3.25 2.9062 3.938 4.9687.719 2.0313 1.078 5.0157 1.078 8.9531v22.9219h7.734v7.9219h-16.64v-27.75c0-3.4375-.11-5.7344-.328-6.8906-.219-1.1563-.829-2.1094-1.829-2.8594-.968-.75-2.125-1.125-3.468-1.125-3.438 0-7.813 1.9531-13.125 5.8594v24.8437h7.875v7.9219h-24.985v-7.9219z"/><path d="m205 99h20v126h-20z"/><path d="m0 99h20v126h-20z"/><path d="m225 99h20v225h-20z" transform="matrix(0 1 -1 0 324 -126)"/><path d="m225 193h20v225h-20z" transform="matrix(0 1 -1 0 418 -32)"/></g><circle cx="113" cy="156" r="13" stroke="#000" stroke-width="10"/></svg>